<svg width="18" height="18" viewBox="0 0 18 18" fill="none" xmlns="http://www.w3.org/2000/svg">
<path d="M2.78552 2.28591C2.71806 2.25298 2.64225 2.24114 2.56797 2.25193C2.49369 2.26272 2.42438 2.29564 2.36909 2.3464C2.31379 2.39717 2.27507 2.46341 2.25798 2.5365C2.24089 2.60959 2.24622 2.68614 2.27327 2.75615L4.40552 8.47641C4.53127 8.81408 4.53127 9.18573 4.40552 9.52341L2.27402 15.2437C2.2471 15.3136 2.24184 15.39 2.25893 15.463C2.27601 15.5359 2.31464 15.6021 2.36981 15.6528C2.42497 15.7035 2.49411 15.7364 2.56825 15.7473C2.64239 15.7582 2.71809 15.7466 2.78552 15.7139L16.2855 9.3389C16.3497 9.30853 16.404 9.26055 16.442 9.20053C16.48 9.14052 16.5002 9.07094 16.5002 8.99991C16.5002 8.92887 16.48 8.85929 16.442 8.79928C16.404 8.73926 16.3497 8.69128 16.2855 8.66091L2.78552 2.28591Z" stroke="white" stroke-width="1.5" stroke-linecap="round" stroke-linejoin="round"/>
<path d="M4.5 9H16.5" stroke="white" stroke-width="1.5" stroke-linecap="round" stroke-linejoin="round"/>
</svg>
