<svg width="32" height="32" viewBox="0 0 32 32" fill="none" xmlns="http://www.w3.org/2000/svg">
<path d="M13.3333 26.6666L11.6667 23.3333L8 23.9999" stroke="url(#paint0_linear_19_330)" stroke-width="2.66667" stroke-linecap="round" stroke-linejoin="round"/>
<path d="M13.3333 5.33325L11.6667 8.66659L8 7.99992" stroke="url(#paint1_linear_19_330)" stroke-width="2.66667" stroke-linecap="round" stroke-linejoin="round"/>
<path d="M18.6667 26.6666L20.3334 23.3333L24 23.9999" stroke="url(#paint2_linear_19_330)" stroke-width="2.66667" stroke-linecap="round" stroke-linejoin="round"/>
<path d="M18.6667 5.33325L20.3334 8.66659L24 7.99992" stroke="url(#paint3_linear_19_330)" stroke-width="2.66667" stroke-linecap="round" stroke-linejoin="round"/>
<path d="M22.6666 28L18.6666 20H13.3333" stroke="url(#paint4_linear_19_330)" stroke-width="2.66667" stroke-linecap="round" stroke-linejoin="round"/>
<path d="M22.6667 4L18.6667 12L20.6667 16" stroke="url(#paint5_linear_19_330)" stroke-width="2.66667" stroke-linecap="round" stroke-linejoin="round"/>
<path d="M2.66669 16H11.3334L13.3334 12" stroke="url(#paint6_linear_19_330)" stroke-width="2.66667" stroke-linecap="round" stroke-linejoin="round"/>
<path d="M26.6667 13.3333L24.6667 15.9999L26.6667 18.6666" stroke="url(#paint7_linear_19_330)" stroke-width="2.66667" stroke-linecap="round" stroke-linejoin="round"/>
<path d="M29.3334 16H20.6667L18.6667 20" stroke="url(#paint8_linear_19_330)" stroke-width="2.66667" stroke-linecap="round" stroke-linejoin="round"/>
<path d="M5.33331 13.3333L7.33331 15.9999L5.33331 18.6666" stroke="url(#paint9_linear_19_330)" stroke-width="2.66667" stroke-linecap="round" stroke-linejoin="round"/>
<path d="M9.33331 28L13.3333 20L11.3333 16" stroke="url(#paint10_linear_19_330)" stroke-width="2.66667" stroke-linecap="round" stroke-linejoin="round"/>
<path d="M9.33331 4L13.3333 12H18.6666" stroke="url(#paint11_linear_19_330)" stroke-width="2.66667" stroke-linecap="round" stroke-linejoin="round"/>
<defs>
<linearGradient id="paint0_linear_19_330" x1="10.6667" y1="23.3333" x2="10.6667" y2="26.6666" gradientUnits="userSpaceOnUse">
<stop stop-color="#206EA5"/>
<stop offset="1" stop-color="#0C2A3F"/>
</linearGradient>
<linearGradient id="paint1_linear_19_330" x1="10.6667" y1="5.33325" x2="10.6667" y2="8.66659" gradientUnits="userSpaceOnUse">
<stop stop-color="#206EA5"/>
<stop offset="1" stop-color="#0C2A3F"/>
</linearGradient>
<linearGradient id="paint2_linear_19_330" x1="21.3334" y1="23.3333" x2="21.3334" y2="26.6666" gradientUnits="userSpaceOnUse">
<stop stop-color="#206EA5"/>
<stop offset="1" stop-color="#0C2A3F"/>
</linearGradient>
<linearGradient id="paint3_linear_19_330" x1="21.3334" y1="5.33325" x2="21.3334" y2="8.66659" gradientUnits="userSpaceOnUse">
<stop stop-color="#206EA5"/>
<stop offset="1" stop-color="#0C2A3F"/>
</linearGradient>
<linearGradient id="paint4_linear_19_330" x1="18" y1="20" x2="18" y2="28" gradientUnits="userSpaceOnUse">
<stop stop-color="#206EA5"/>
<stop offset="1" stop-color="#0C2A3F"/>
</linearGradient>
<linearGradient id="paint5_linear_19_330" x1="20.6667" y1="4" x2="20.6667" y2="16" gradientUnits="userSpaceOnUse">
<stop stop-color="#206EA5"/>
<stop offset="1" stop-color="#0C2A3F"/>
</linearGradient>
<linearGradient id="paint6_linear_19_330" x1="8.00002" y1="12" x2="8.00002" y2="16" gradientUnits="userSpaceOnUse">
<stop stop-color="#206EA5"/>
<stop offset="1" stop-color="#0C2A3F"/>
</linearGradient>
<linearGradient id="paint7_linear_19_330" x1="25.6667" y1="13.3333" x2="25.6667" y2="18.6666" gradientUnits="userSpaceOnUse">
<stop stop-color="#206EA5"/>
<stop offset="1" stop-color="#0C2A3F"/>
</linearGradient>
<linearGradient id="paint8_linear_19_330" x1="24" y1="16" x2="24" y2="20" gradientUnits="userSpaceOnUse">
<stop stop-color="#206EA5"/>
<stop offset="1" stop-color="#0C2A3F"/>
</linearGradient>
<linearGradient id="paint9_linear_19_330" x1="6.33331" y1="13.3333" x2="6.33331" y2="18.6666" gradientUnits="userSpaceOnUse">
<stop stop-color="#206EA5"/>
<stop offset="1" stop-color="#0C2A3F"/>
</linearGradient>
<linearGradient id="paint10_linear_19_330" x1="11.3333" y1="16" x2="11.3333" y2="28" gradientUnits="userSpaceOnUse">
<stop stop-color="#206EA5"/>
<stop offset="1" stop-color="#0C2A3F"/>
</linearGradient>
<linearGradient id="paint11_linear_19_330" x1="14" y1="4" x2="14" y2="12" gradientUnits="userSpaceOnUse">
<stop stop-color="#206EA5"/>
<stop offset="1" stop-color="#0C2A3F"/>
</linearGradient>
</defs>
</svg>
