<svg width="32" height="32" viewBox="0 0 32 32" fill="none" xmlns="http://www.w3.org/2000/svg">
<path d="M13.3333 29.3332V20.5732" stroke="url(#paint0_linear_19_316)" stroke-width="2.66667" stroke-linecap="round" stroke-linejoin="round"/>
<path d="M16 14.6667H16.0133" stroke="url(#paint1_linear_19_316)" stroke-width="2.66667" stroke-linecap="round" stroke-linejoin="round"/>
<path d="M16 9.33325H16.0133" stroke="url(#paint2_linear_19_316)" stroke-width="2.66667" stroke-linecap="round" stroke-linejoin="round"/>
<path d="M18.6667 20.5732V29.3332" stroke="url(#paint3_linear_19_316)" stroke-width="2.66667" stroke-linecap="round" stroke-linejoin="round"/>
<path d="M20 21.3333C18.846 20.4679 17.4425 20 16 20C14.5575 20 13.154 20.4679 12 21.3333" stroke="url(#paint4_linear_19_316)" stroke-width="2.66667" stroke-linecap="round" stroke-linejoin="round"/>
<path d="M21.3333 14.6667H21.3466" stroke="url(#paint5_linear_19_316)" stroke-width="2.66667" stroke-linecap="round" stroke-linejoin="round"/>
<path d="M21.3333 9.33325H21.3466" stroke="url(#paint6_linear_19_316)" stroke-width="2.66667" stroke-linecap="round" stroke-linejoin="round"/>
<path d="M10.6667 14.6667H10.68" stroke="url(#paint7_linear_19_316)" stroke-width="2.66667" stroke-linecap="round" stroke-linejoin="round"/>
<path d="M10.6667 9.33325H10.68" stroke="url(#paint8_linear_19_316)" stroke-width="2.66667" stroke-linecap="round" stroke-linejoin="round"/>
<path d="M24 2.66675H7.99998C6.52722 2.66675 5.33331 3.86066 5.33331 5.33341V26.6667C5.33331 28.1395 6.52722 29.3334 7.99998 29.3334H24C25.4727 29.3334 26.6666 28.1395 26.6666 26.6667V5.33341C26.6666 3.86066 25.4727 2.66675 24 2.66675Z" stroke="url(#paint9_linear_19_316)" stroke-width="2.66667" stroke-linecap="round" stroke-linejoin="round"/>
<defs>
<linearGradient id="paint0_linear_19_316" x1="13.8333" y1="20.5732" x2="13.8333" y2="29.3332" gradientUnits="userSpaceOnUse">
<stop stop-color="#206EA5"/>
<stop offset="1" stop-color="#0C2A3F"/>
</linearGradient>
<linearGradient id="paint1_linear_19_316" x1="16.0067" y1="14.6667" x2="16.0067" y2="15.6667" gradientUnits="userSpaceOnUse">
<stop stop-color="#206EA5"/>
<stop offset="1" stop-color="#0C2A3F"/>
</linearGradient>
<linearGradient id="paint2_linear_19_316" x1="16.0067" y1="9.33325" x2="16.0067" y2="10.3333" gradientUnits="userSpaceOnUse">
<stop stop-color="#206EA5"/>
<stop offset="1" stop-color="#0C2A3F"/>
</linearGradient>
<linearGradient id="paint3_linear_19_316" x1="19.1667" y1="20.5732" x2="19.1667" y2="29.3332" gradientUnits="userSpaceOnUse">
<stop stop-color="#206EA5"/>
<stop offset="1" stop-color="#0C2A3F"/>
</linearGradient>
<linearGradient id="paint4_linear_19_316" x1="16" y1="20" x2="16" y2="21.3333" gradientUnits="userSpaceOnUse">
<stop stop-color="#206EA5"/>
<stop offset="1" stop-color="#0C2A3F"/>
</linearGradient>
<linearGradient id="paint5_linear_19_316" x1="21.34" y1="14.6667" x2="21.34" y2="15.6667" gradientUnits="userSpaceOnUse">
<stop stop-color="#206EA5"/>
<stop offset="1" stop-color="#0C2A3F"/>
</linearGradient>
<linearGradient id="paint6_linear_19_316" x1="21.34" y1="9.33325" x2="21.34" y2="10.3333" gradientUnits="userSpaceOnUse">
<stop stop-color="#206EA5"/>
<stop offset="1" stop-color="#0C2A3F"/>
</linearGradient>
<linearGradient id="paint7_linear_19_316" x1="10.6734" y1="14.6667" x2="10.6734" y2="15.6667" gradientUnits="userSpaceOnUse">
<stop stop-color="#206EA5"/>
<stop offset="1" stop-color="#0C2A3F"/>
</linearGradient>
<linearGradient id="paint8_linear_19_316" x1="10.6734" y1="9.33325" x2="10.6734" y2="10.3333" gradientUnits="userSpaceOnUse">
<stop stop-color="#206EA5"/>
<stop offset="1" stop-color="#0C2A3F"/>
</linearGradient>
<linearGradient id="paint9_linear_19_316" x1="16" y1="2.66675" x2="16" y2="29.3334" gradientUnits="userSpaceOnUse">
<stop stop-color="#206EA5"/>
<stop offset="1" stop-color="#0C2A3F"/>
</linearGradient>
</defs>
</svg>
