<svg width="24" height="24" viewBox="0 0 24 24" fill="none" xmlns="http://www.w3.org/2000/svg">
<path d="M12 0C5.38272 0 0 5.38368 0 12C0 18.6163 5.3832 24 12 24C18.6173 24 24 18.6163 24 12C24 5.38368 18.6168 0 12 0ZM12 21.6005C6.70608 21.6005 2.39952 17.2939 2.39952 12C2.39952 6.70704 6.7056 2.40048 12 2.40048C17.2934 2.40048 21.5995 6.70704 21.5995 12C21.599 17.2939 17.293 21.6005 12 21.6005Z" fill="white"/>
<path d="M8.83871 8.32156C9.28326 7.8503 9.81457 7.46925 10.4035 7.19932C11.0047 6.92315 11.6591 6.78224 12.3206 6.78652C13.1601 6.78652 13.9305 6.98668 14.6328 7.387C15.325 7.77849 15.9149 8.32818 16.3541 8.99116L18.0648 7.71196C17.4149 6.82465 16.5704 6.09792 15.5961 5.58748C14.6064 5.06236 13.5139 4.7998 12.3201 4.7998C11.3366 4.7998 10.4121 4.98988 9.54719 5.371C8.70171 5.73664 7.93387 6.26043 7.28495 6.91421C6.63697 7.57189 6.11966 8.34655 5.76047 9.19708C5.38655 10.0678 5.19983 11.0033 5.19983 12.0003C5.19983 12.9963 5.38655 13.9308 5.76047 14.804C6.11927 15.6541 6.63664 16.4282 7.28495 17.0849C7.93391 17.7391 8.70172 18.2635 9.54719 18.63C10.4126 19.0092 11.3371 19.1998 12.3201 19.1998C13.5139 19.1998 14.6059 18.9372 15.5961 18.4116C16.5709 17.902 17.4156 17.1751 18.0648 16.2872L16.3541 15.0099C15.9141 15.6719 15.3244 16.2209 14.6328 16.6126C13.9305 17.0124 13.1601 17.2126 12.3206 17.2126C11.6591 17.2171 11.0046 17.0762 10.4035 16.7998C9.81447 16.53 9.28313 16.149 8.83871 15.6776C8.39327 15.2072 8.03903 14.6547 7.77647 14.0259C7.51391 13.3971 7.38287 12.7208 7.38287 12.0003C7.38287 11.2784 7.51391 10.603 7.77647 9.97372C8.03903 9.34444 8.39327 8.79388 8.83871 8.32156Z" fill="white"/>
</svg>
