<svg width="18" height="18" viewBox="0 0 18 18" fill="none" xmlns="http://www.w3.org/2000/svg">
<path d="M2.7854 2.28603C2.71794 2.2531 2.64213 2.24126 2.56785 2.25205C2.49357 2.26284 2.42426 2.29576 2.36896 2.34653C2.31367 2.39729 2.27495 2.46353 2.25786 2.53662C2.24077 2.60971 2.24609 2.68626 2.27315 2.75628L4.4054 8.47653C4.53115 8.8142 4.53115 9.18586 4.4054 9.52353L2.2739 15.2438C2.24698 15.3137 2.24172 15.3901 2.25881 15.4631C2.27589 15.536 2.31452 15.6022 2.36969 15.6529C2.42485 15.7036 2.49399 15.7366 2.56813 15.7475C2.64227 15.7584 2.71797 15.7467 2.7854 15.714L16.2854 9.33903C16.3496 9.30866 16.4039 9.26067 16.4419 9.20065C16.4799 9.14064 16.5001 9.07106 16.5001 9.00003C16.5001 8.92899 16.4799 8.85941 16.4419 8.7994C16.4039 8.73938 16.3496 8.6914 16.2854 8.66103L2.7854 2.28603Z" stroke="white" stroke-width="1.5" stroke-linecap="round" stroke-linejoin="round"/>
<path d="M4.5 9H16.5" stroke="white" stroke-width="1.5" stroke-linecap="round" stroke-linejoin="round"/>
</svg>
