<svg width="24" height="24" viewBox="0 0 24 24" fill="none" xmlns="http://www.w3.org/2000/svg">
<path d="M12 0C5.38272 0 0 5.38368 0 12C0 18.6163 5.3832 24 12 24C18.6173 24 24 18.6163 24 12C24 5.38368 18.6168 0 12 0ZM12 21.6005C6.70608 21.6005 2.39952 17.2939 2.39952 12C2.39952 6.70704 6.7056 2.40048 12 2.40048C17.2934 2.40048 21.5995 6.70704 21.5995 12C21.599 17.2939 17.293 21.6005 12 21.6005Z" fill="white"/>
<path d="M8.83859 8.32181C9.28313 7.85054 9.81445 7.4695 10.4034 7.19957C11.0045 6.92339 11.659 6.78248 12.3205 6.78677C13.16 6.78677 13.9304 6.98693 14.6327 7.38725C15.3249 7.77873 15.9147 8.32842 16.3539 8.99141L18.0647 7.71221C17.4147 6.82489 16.5703 6.09816 15.596 5.58773C14.6063 5.06261 13.5138 4.80005 12.32 4.80005C11.3365 4.80005 10.412 4.99013 9.54707 5.37125C8.70159 5.73689 7.93375 6.26067 7.28483 6.91445C6.63685 7.57213 6.11954 8.34679 5.76035 9.19733C5.38643 10.068 5.19971 11.0036 5.19971 12.0005C5.19971 12.9965 5.38643 13.9311 5.76035 14.8042C6.11915 15.6544 6.63652 16.4285 7.28483 17.0852C7.93379 17.7394 8.70159 18.2638 9.54707 18.6303C10.4125 19.0095 11.337 19.2 12.32 19.2C13.5138 19.2 14.6058 18.9375 15.596 18.4119C16.5708 17.9022 17.4154 17.1754 18.0647 16.2874L16.3539 15.0101C15.914 15.6721 15.3243 16.2212 14.6327 16.6128C13.9304 17.0127 13.16 17.2128 12.3205 17.2128C11.6589 17.2174 11.0045 17.0764 10.4034 16.8C9.81435 16.5303 9.28301 16.1492 8.83859 15.6778C8.39315 15.2074 8.03891 14.6549 7.77635 14.0261C7.51379 13.3973 7.38275 12.721 7.38275 12.0005C7.38275 11.2786 7.51379 10.6032 7.77635 9.97397C8.03891 9.34469 8.39315 8.79413 8.83859 8.32181Z" fill="white"/>
</svg>
